/* XPM */ 
static const char * pppoe_xpm[] = {
"32 32 66 1",
" 	c None",
"!	c black",
"#	c #A6CAF0",
"$	c #80C0C0",
"%	c #60A0C0",
"&	c #206080",
"'	c #80E080",
"(	c #40C0C0",
")	c #40C080",
"*	c #60C080",
"+	c #40A0C0",
",	c #4080C0",
"-	c #FFFBF0",
".	c #60C0C0",
"0	c #80E040",
"1	c #60C040",
"2	c #40C000",
"3	c #20A000",
"4	c #20A0C0",
"5	c #2080C0",
"6	c #004040",
"7	c white",
"8	c #A0C0C0",
"9	c #40C040",
":	c #0080C0",
";	c #002040",
"<	c #C0DCC0",
"=	c #60C000",
">	c #00A0C0",
"?	c #60E080",
"@	c #A0E080",
"A	c #20C080",
"B	c #008040",
"C	c #20A080",
"D	c #008000",
"E	c #004080",
"F	c #20A040",
"G	c #006080",
"H	c #00A040",
"I	c #008080",
"J	c #006040",
"K	c #006000",
"L	c #0060C0",
"M	c #20C040",
"N	c #20C0C0",
"O	c #206040",
"P	c #00A080",
"Q	c #004000",
"R	c #0040C0",
"S	c #406080",
"T	c #000040",
"U	c #202040",
"V	c #404080",
"W	c #6080C0",
"X	c #80A0C0",
"Y	c #408080",
"Z	c #002080",
"[	c #2060C0",
"]	c #204080",
"^	c #6060C0",
"_	c #204040",
"`	c #2040C0",
"a	c #4060C0",
"b	c #404040",
"c	c #608080",
"d	c #606080",
"          #####$%&!!            ",
"        ###$$'()*(+,!!          ",
"      -##..''011234456!!        ",
"     7#'*$$8$'0199:::4;!!       ",
"    -<)*'8#<<#'1=9>::::;!!      ",
"   ##11?'@<<<#@11A>:::B:!!      ",
"   #1210'8<<<7<*(4C::BDBE!!     ",
"  ##F2110$#@@-##(4>::DBDG!!     ",
"  #+:F2110'00'##(4>HIBDDJE!!    ",
"  #::>2911111##(4>:IDDDKJE!!    ",
" !.L::322229..(4>>:IBDDKKG!!!   ",
" !%L::H33M9N444>>::BBBJJOG!!!   ",
" !%LL::H3>PC>>>:::IDDDKJOE!!!   ",
" !+LLL::IPH>P:::::DDDKQOOE!!!   ",
" !+RLLL::::BDI::LEQQ!!6OSE!!!   ",
" !%RRLLLL::DDDBIE!TUVWXYSZ!!!   ",
" !.[RRLLLLLBDDDBE]8#####,;!!!   ",
"  ,+RRRLLLLGDDDGZ^#######W_!!   ",
"  !+RERRRRRGKKJRZWX####77##S!!  ",
"  !&5REERRREKJER[XX###7####_!!  ",
"   !&5``EEREOERL5%X####XXXX!!!  ",
"   !!G:[```&&``:5[X####X##W!!!  ",
"    !!EL[aaaaaaaa^aW###X#77XU!! ",
"     !!!EL[aaaaaa`Z;bXXWVS##W!! ",
"      !!!!!;EEEZ;!!!!U_!!!V##!!!",
"        !!!!!!!!!!!!!!!!!!S##!!!",
"          !!!!!!!!!W%XWWX$##X!!!",
"              !!!WX########X_!!!",
"                %###XWWcdS_!!!! ",
"                X##c!!!!!!!!!!! ",
"               !!!!!!!!!!!!!!!  ",
"                !!!!!!!!!!      "};